<svg width="556" height="556" viewBox="0 0 556 556" fill="none" xmlns="http://www.w3.org/2000/svg">
<rect width="556" height="556" rx="87" fill="#0085FF"/>
<rect x="449.426" y="196.391" width="36.3216" height="210.416" rx="18.1608" transform="rotate(126.4 449.426 196.391)" fill="#FFDD2C"/>
<path d="M272.406 81.8202C280.668 76.1346 291.976 78.2238 297.661 86.4866C303.347 94.7494 301.258 106.057 292.995 111.742L142.839 215.064C134.576 220.749 123.269 218.66 117.583 210.397C111.898 202.134 113.987 190.827 122.25 185.141L272.406 81.8202Z" fill="#FFDD2C"/>
<rect x="333" y="89.0441" width="40.4954" height="61.7709" rx="20" transform="rotate(-0.0625536 333 89.0441)" fill="#FFDD2C"/>
<path d="M272.012 133.283C278.274 128.94 286.898 132.916 287.662 140.498L301.39 276.794C302.166 284.492 294.28 290.117 287.254 286.878L224.11 257.766L160.966 228.655C153.939 225.416 153.096 215.767 159.453 211.357L272.012 133.283Z" fill="#FFDD2C"/>
<path d="M276.019 139.567C276.956 131.979 285.716 128.207 291.872 132.74L398.958 211.583C405.178 216.162 404.078 225.765 396.984 228.82L335.291 255.387L273.598 281.954C266.503 285.009 258.771 279.209 259.718 271.543L276.019 139.567Z" fill="#FFDD2C"/>
<rect x="150.368" y="215.217" width="257.045" height="183.843" rx="10" fill="#FFDD2C"/>
<path d="M236.556 265.168C243.444 277.501 241.771 291.552 232.819 296.552C223.867 301.551 211.026 295.606 204.138 283.273C197.25 270.94 198.924 256.889 207.876 251.889C216.828 246.889 229.669 252.835 236.556 265.168Z" fill="#0049B7"/>
<ellipse cx="337.46" cy="277.686" rx="18.5657" ry="25.5778" transform="rotate(27.4646 337.46 277.686)" fill="#0049B7"/>
<ellipse cx="301.369" cy="247.174" rx="18.5657" ry="25.5778" transform="rotate(0.979811 301.369 247.174)" fill="#0049B7"/>
<ellipse cx="258.852" cy="246.421" rx="18.5657" ry="25.5778" transform="rotate(-2.14751 258.852 246.421)" fill="#0049B7"/>
<ellipse cx="248.045" cy="329.393" rx="28.262" ry="30.997" fill="#0049B7"/>
<ellipse cx="304.483" cy="328.275" rx="28.262" ry="30.997" fill="#0049B7"/>
<rect x="234.871" y="309.572" width="79.7985" height="42.5592" fill="#0049B7"/>
<path d="M251.812 335.324C251.827 338.485 252.409 341.612 253.525 344.527C254.641 347.442 256.27 350.088 258.318 352.313C260.366 354.539 262.793 356.301 265.461 357.498C268.129 358.695 270.985 359.305 273.867 359.291C276.749 359.278 279.6 358.642 282.256 357.421C284.913 356.199 287.324 354.415 289.352 352.171C291.379 349.926 292.983 347.266 294.073 344.34C295.162 341.415 295.715 338.283 295.701 335.122L273.756 335.223L251.812 335.324Z" fill="#0049B7"/>
<ellipse cx="276.483" cy="318.821" rx="52.7881" ry="29.9244" fill="#0049B7"/>
<rect x="239.341" y="324.101" width="68.8356" height="27.7563" fill="#0049B7"/>
<path d="M141.688 423.688C147.5 423.688 152.208 424.375 155.812 425.75C159.438 427.125 162.094 429.302 163.781 432.281C165.469 435.26 166.312 439.177 166.312 444.031C166.312 447.281 165.698 450.26 164.469 452.969C163.26 455.656 161.583 457.979 159.438 459.938C157.292 461.896 154.792 463.417 151.938 464.5C149.104 465.562 146.062 466.094 142.812 466.094C141.979 466.094 141.115 466.073 140.219 466.031C139.344 465.99 138.354 465.969 137.25 465.969V475H116.844V425.219C121.698 424.74 126.177 424.365 130.281 424.094C134.385 423.823 138.188 423.688 141.688 423.688ZM145 436.656C144.271 436.656 143.448 436.844 142.531 437.219C141.635 437.594 140.771 438.031 139.938 438.531C139.125 439.01 138.448 439.438 137.906 439.812C137.385 440.188 137.125 440.375 137.125 440.375V452.156L140.781 450.375C142.885 449.333 144.698 448.052 146.219 446.531C147.76 444.99 148.531 443 148.531 440.562C148.531 439.521 148.219 438.615 147.594 437.844C146.99 437.052 146.125 436.656 145 436.656ZM190.281 476.156C187.76 476.156 185.302 475.76 182.906 474.969C180.51 474.177 178.344 473 176.406 471.438C174.469 469.854 172.927 467.906 171.781 465.594C170.635 463.281 170.062 460.594 170.062 457.531C170.062 453.719 170.74 450.385 172.094 447.531C173.469 444.656 175.323 442.271 177.656 440.375C179.99 438.458 182.635 437.021 185.594 436.062C188.552 435.104 191.625 434.625 194.812 434.625C198.854 434.625 202.135 435.24 204.656 436.469C207.198 437.698 209.062 439.281 210.25 441.219C211.438 443.156 212.031 445.198 212.031 447.344C212.031 449.656 211.292 451.896 209.812 454.062C208.333 456.229 206.156 458.01 203.281 459.406C200.427 460.802 196.906 461.5 192.719 461.5C192.323 461.5 191.792 461.5 191.125 461.5C190.479 461.479 189.917 461.458 189.438 461.438C189.438 462.75 189.75 463.698 190.375 464.281C191 464.865 191.781 465.229 192.719 465.375C193.677 465.521 194.635 465.594 195.594 465.594C196.448 465.594 197.646 465.458 199.188 465.188C200.75 464.896 202.438 464.375 204.25 463.625C206.062 462.875 207.781 461.802 209.406 460.406L211.344 470.125C208.885 472.25 205.771 473.792 202 474.75C198.25 475.688 194.344 476.156 190.281 476.156ZM189.438 454.312L196.281 452.781L196.875 448C196.875 447.875 196.885 447.76 196.906 447.656C196.927 447.531 196.938 447.406 196.938 447.281C196.938 445.448 196.083 444.531 194.375 444.531C192.896 444.656 191.865 445.167 191.281 446.062C190.698 446.938 190.323 448.094 190.156 449.531C189.99 450.948 189.75 452.542 189.438 454.312ZM216.875 436.156H220.438V425.656L239.125 423.75V436.156H247.969V446.062H239.125V455.875C239.125 458.708 239.76 460.812 241.031 462.188C242.302 463.562 244.615 464.25 247.969 464.25V472.188C246.177 473.396 244.135 474.365 241.844 475.094C239.552 475.844 237.219 476.219 234.844 476.219C232.219 476.219 229.812 475.667 227.625 474.562C225.458 473.458 223.719 471.865 222.406 469.781C221.094 467.698 220.438 465.208 220.438 462.312V446.062H216.875V436.156ZM269.781 425.094H289.219V459.969H306V475H269.781V425.094ZM309.625 457.344C309.625 453.927 310.198 450.833 311.344 448.062C312.51 445.292 314.094 442.906 316.094 440.906C318.094 438.906 320.365 437.375 322.906 436.312C325.448 435.229 328.104 434.688 330.875 434.688C333.104 434.688 335.281 435.24 337.406 436.344C339.552 437.427 341.26 438.958 342.531 440.938L347 436.156H357.25V475H347L342.531 468.531C340.927 470.906 338.771 472.771 336.062 474.125C333.354 475.479 330.562 476.156 327.688 476.156C324.521 476.156 321.562 475.479 318.812 474.125C316.062 472.75 313.844 470.677 312.156 467.906C310.469 465.115 309.625 461.594 309.625 457.344ZM328.25 458.875C328.25 459.896 328.49 460.865 328.969 461.781C329.448 462.698 330.229 463.156 331.312 463.156C332.354 463.156 333.688 462.844 335.312 462.219C336.938 461.573 338.635 460.5 340.406 459V447.938C339.677 447.5 338.854 447.281 337.938 447.281C336.75 447.281 335.583 447.646 334.438 448.375C333.292 449.083 332.25 450.021 331.312 451.188C330.396 452.333 329.656 453.583 329.094 454.938C328.531 456.292 328.25 457.604 328.25 458.875ZM391.281 456.25C391.281 452.854 390.781 450.417 389.781 448.938C388.802 447.458 387.469 446.719 385.781 446.719C384.844 446.719 384.188 447.115 383.812 447.906C383.458 448.698 383.281 449.646 383.281 450.75V475H364.719V436.156H374.969L379.438 442.219C381.167 439.865 383.5 438.021 386.438 436.688C389.375 435.354 392.417 434.688 395.562 434.688C398.188 434.688 400.594 435.24 402.781 436.344C404.969 437.427 406.708 439 408 441.062C409.312 443.125 409.969 445.604 409.969 448.5V475H391.281V456.25ZM415.812 457.531C415.812 453.594 416.469 450.198 417.781 447.344C419.094 444.469 420.854 442.104 423.062 440.25C425.292 438.375 427.76 436.99 430.469 436.094C433.198 435.198 435.969 434.75 438.781 434.75C440.26 434.75 441.719 434.854 443.156 435.062C444.615 435.25 446.01 435.552 447.344 435.969V422.406H465.531V475H453.938L449.469 468.531C447.51 471.115 445.208 473.021 442.562 474.25C439.938 475.479 437.229 476.094 434.438 476.094C432.083 476.094 429.792 475.677 427.562 474.844C425.354 474.01 423.365 472.792 421.594 471.188C419.823 469.583 418.417 467.635 417.375 465.344C416.333 463.052 415.812 460.448 415.812 457.531ZM438.281 463.156C439.594 463.156 440.823 462.917 441.969 462.438C443.115 461.958 444.146 461.396 445.062 460.75C445.979 460.104 446.74 459.542 447.344 459.062V447.938C446.635 447.5 445.833 447.281 444.938 447.281C443.792 447.281 442.646 447.635 441.5 448.344C440.354 449.031 439.302 449.958 438.344 451.125C437.385 452.271 436.615 453.521 436.031 454.875C435.469 456.229 435.188 457.562 435.188 458.875C435.188 459.854 435.417 460.812 435.875 461.75C436.354 462.688 437.156 463.156 438.281 463.156Z" fill="white"/>
</svg>
